General
Complete name                            : Johnny English 02 - Le retour [ATG 2011] 720p.mp4
Format                                   : MPEG-4
Format profile                           : Base Media
Codec ID                                 : isom
File size                                : 1.29 GiB
Duration                                 : 1h 41mn
Overall bit rate mode                    : Variable
Overall bit rate                         : 1 822 Kbps

Video
ID                                       : 1
Format                                   : AVC
Format/Info                              : Advanced Video Codec
Format profile                           : High@L4.1
Format settings, CABAC                   : Yes
Format settings, ReFrames                : 8 frames
Codec ID                                 : avc1
Codec ID/Info                            : Advanced Video Coding
Duration                                 : 1h 41mn
Bit rate                                 : 1 500 Kbps
Maximum bit rate                         : 11.7 Mbps
Width                                    : 1 280 pixels
Height                                   : 528 pixels
Display aspect ratio                     : 2.40:1
Frame rate mode                          : Constant
Frame rate                               : 24.000 fps
Color space                              : YUV
Chroma subsampling                       : 4:2:0
Bit depth                                : 8 bits
Scan type                                : Progressive
Bits/(Pixel*Frame)                       : 0.092
Stream size                              : 1.07 GiB (82%)
Writing library                          : x264 core 118 r2085 8a62835

Audio
ID                                       : 2
Format                                   : AAC
Format/Info                              : Advanced Audio Codec
Format profile                           : LC
Codec ID                                 : 40
Duration                                 : 1h 41mn
Bit rate mode                            : Variable
Bit rate                                 : 319 Kbps
Maximum bit rate                         : 415 Kbps
Channel(s)                               : 6 channels
Channel positions                        : Front: L C R, Side: L R, LFE
Sampling rate                            : 48.0 KHz
Compression mode                         : Lossy
Stream size                              : 232 MiB (17%)
